<svg xmlns="http://www.w3.org/2000/svg" viewBox="0 0 40 40" icon="vk" class="default-footer-socials-vk-icon"><path d="M20 0C8.95 0 0 8.95 0 20s8.95 20 20 20 20-8.95 20-20S31.05 0 20 0zm10.15 22.16c.93.91 1.92 1.77 2.76 2.77.37.44.72.9.99 1.42.38.74.04 1.55-.62 1.59h-4.1c-1.06.09-1.9-.34-2.61-1.06-.57-.58-1.09-1.19-1.64-1.79-.22-.24-.46-.48-.74-.66-.56-.36-1.04-.25-1.36.33-.33.59-.4 1.25-.43 1.91-.04.97-.34 1.22-1.31 1.26-2.07.1-4.04-.22-5.86-1.26-1.61-.92-2.86-2.22-3.95-3.69-2.12-2.87-3.74-6.02-5.19-9.26-.34-.72-.1-1.11.7-1.12 1.34-.03 2.67-.02 4.01 0 .54.01.9.32 1.11.83.72 1.78 1.61 3.47 2.72 5.04.3.42.6.83 1.03 1.13.47.33.84.22 1.06-.31.14-.34.21-.7.24-1.06.11-1.24.12-2.47-.07-3.7-.11-.77-.55-1.27-1.32-1.41-.39-.07-.33-.22-.14-.44.33-.39.64-.63 1.26-.63h4.63c.73.14.89.47.99 1.21v5.14c-.01.28.14 1.13.65 1.31.41.14.68-.19.92-.45 1.11-1.18 1.9-2.57 2.61-4.01.31-.63.58-1.29.84-1.95.19-.49.5-.73 1.05-.72l4.46.01c.13 0 .26 0 .39.02.75.13.96.45.72 1.18-.37 1.15-1.08 2.11-1.77 3.07-.74 1.03-1.54 2.02-2.28 3.06-.65.95-.6 1.42.25 2.24z"/></svg>